<svg width="34" height="28" viewBox="0 0 34 28" fill="none" xmlns="http://www.w3.org/2000/svg">
<path d="M30.75 0.25H3.25C2.58696 0.25 1.95107 0.513392 1.48223 0.982233C1.01339 1.45107 0.75 2.08696 0.75 2.75V25.25C0.75 25.913 1.01339 26.5489 1.48223 27.0178C1.95107 27.4866 2.58696 27.75 3.25 27.75H30.75C31.413 27.75 32.0489 27.4866 32.5178 27.0178C32.9866 26.5489 33.25 25.913 33.25 25.25V2.75C33.25 2.08696 32.9866 1.45107 32.5178 0.982233C32.0489 0.513392 31.413 0.25 30.75 0.25ZM11.5 16.75C11.7652 16.9489 11.9406 17.245 11.9874 17.5732C12.0343 17.9014 11.9489 18.2348 11.75 18.5C11.5511 18.7652 11.255 18.9406 10.9268 18.9874C10.5986 19.0343 10.2652 18.9489 10 18.75L5 15C4.84476 14.8836 4.71875 14.7326 4.63197 14.559C4.54518 14.3854 4.5 14.1941 4.5 14C4.5 13.8059 4.54518 13.6146 4.63197 13.441C4.71875 13.2674 4.84476 13.1164 5 13L10 9.25C10.2652 9.05109 10.5986 8.96568 10.9268 9.01256C11.255 9.05945 11.5511 9.23478 11.75 9.5C11.9489 9.76522 12.0343 10.0986 11.9874 10.4268C11.9406 10.755 11.7652 11.0511 11.5 11.25L7.83281 14L11.5 16.75ZM20.7016 5.59375L15.7016 23.0938C15.6589 23.2544 15.5847 23.4049 15.4833 23.5365C15.3818 23.6681 15.2551 23.7782 15.1106 23.8602C14.9661 23.9423 14.8066 23.9947 14.6416 24.0144C14.4766 24.0341 14.3093 24.0207 14.1495 23.975C13.9898 23.9293 13.8407 23.8522 13.7111 23.7482C13.5815 23.6442 13.4739 23.5154 13.3946 23.3693C13.3154 23.2232 13.2661 23.0628 13.2495 22.8975C13.233 22.7321 13.2496 22.5651 13.2984 22.4062L18.2984 4.90625C18.3945 4.59334 18.6095 4.33061 18.8973 4.17451C19.185 4.01841 19.5225 3.9814 19.8372 4.07144C20.1519 4.16147 20.4187 4.37136 20.5803 4.65601C20.742 4.94066 20.7855 5.27736 20.7016 5.59375ZM29 15L24 18.75C23.7348 18.9489 23.4014 19.0343 23.0732 18.9874C22.745 18.9406 22.4489 18.7652 22.25 18.5C22.0511 18.2348 21.9657 17.9014 22.0126 17.5732C22.0594 17.245 22.2348 16.9489 22.5 16.75L26.1672 14L22.5 11.25C22.3687 11.1515 22.258 11.0281 22.1744 10.8869C22.0908 10.7456 22.0358 10.5893 22.0126 10.4268C21.9893 10.2643 21.9984 10.0988 22.0391 9.93977C22.0798 9.78076 22.1515 9.63132 22.25 9.5C22.3485 9.36868 22.4719 9.25804 22.6131 9.17441C22.7544 9.09077 22.9107 9.03578 23.0732 9.01256C23.2357 8.98935 23.4012 8.99837 23.5602 9.03911C23.7192 9.07985 23.8687 9.15151 24 9.25L29 13C29.1552 13.1164 29.2812 13.2674 29.368 13.441C29.4548 13.6146 29.5 13.8059 29.5 14C29.5 14.1941 29.4548 14.3854 29.368 14.559C29.2812 14.7326 29.1552 14.8836 29 15Z" fill="#063347"/>
</svg>
